<?xml version="1.0" encoding="iso-8859-1"?>
<!-- Generator: Adobe Illustrator 15.0.0, SVG Export Plug-In . SVG Version: 6.00 Build 0)  -->
<!DOCTYPE svg PUBLIC "-//W3C//DTD SVG 1.1//EN" "http://www.w3.org/Graphics/SVG/1.1/DTD/svg11.dtd">
<svg version="1.1" xmlns="http://www.w3.org/2000/svg" xmlns:xlink="http://www.w3.org/1999/xlink" x="0px" y="0px" width="235px"
	 height="235px" viewBox="0 0 235 235" style="enable-background:new 0 0 235 235;" xml:space="preserve">
<g id="School">
	<rect style="fill:#183C76;" width="235" height="235"/>
	<path style="fill:#E3E3E3;" d="M117.5,18.502c-54.676,0-98.999,44.323-98.999,98.999c0,54.675,44.323,98.999,98.999,98.999
		c54.675,0,98.999-44.324,98.999-98.999C216.499,62.825,172.175,18.502,117.5,18.502z M117.5,202.979
		c-47.209,0-85.479-38.27-85.479-85.478c0-47.209,38.271-85.479,85.479-85.479c47.208,0,85.479,38.271,85.479,85.479
		C202.979,164.709,164.708,202.979,117.5,202.979z"/>
	<path style="fill:#EDA33F;" d="M197.227,117.501c0,44.03-35.694,79.724-79.726,79.724c-44.033,0-79.728-35.693-79.728-79.724
		c0-44.033,35.694-79.729,79.728-79.729C161.532,37.772,197.227,73.468,197.227,117.501z"/>
	<ellipse cx="117.5" cy="153.814" rx="65.733" ry="6.073"/>
	<rect x="60.466" y="108.467" style="fill:#352200;" width="114.066" height="2.952"/>
	<polygon style="fill:#D3D5D6;" points="173.259,153.814 173.259,111.409 133.269,111.409 133.269,85.643 117.5,75.444 
		117.5,75.444 117.499,75.444 117.499,75.444 117.499,75.444 101.73,85.643 101.73,111.409 61.74,111.409 61.74,153.814 	"/>
	<rect x="110.188" y="134.222" style="fill:#352200;" width="14.625" height="19.593"/>
	<circle style="fill:#352200;" cx="117.5" cy="97.452" r="10.735"/>
	<circle style="fill:#FFFFFF;" cx="117.5" cy="97.452" r="9.109"/>
	<path style="fill:#352200;" d="M116.698,90.62v6.555h-6.555v1.92h7.515l0,0c0.529-0.001,0.959-0.43,0.959-0.96h0.001V90.62H116.698
		z"/>
	<polygon style="fill:#352200;" points="117.5,72.126 100.684,82.305 100.684,87.653 117.5,77.494 134.316,87.653 134.316,82.305 	
		"/>
	<g>
		<rect x="65.498" y="115.703" style="fill:#8FBDCF;" width="9.662" height="12.749"/>
		<rect x="78.918" y="115.703" style="fill:#8FBDCF;" width="9.662" height="12.749"/>
		<rect x="92.337" y="115.703" style="fill:#8FBDCF;" width="9.662" height="12.749"/>
		<rect x="65.498" y="135.295" style="fill:#8FBDCF;" width="9.662" height="12.749"/>
		<rect x="78.918" y="135.295" style="fill:#8FBDCF;" width="9.662" height="12.749"/>
		<rect x="92.337" y="135.295" style="fill:#8FBDCF;" width="9.662" height="12.749"/>
	</g>
	<g>
		<rect x="130.985" y="115.703" style="fill:#8FBDCF;" width="9.662" height="12.749"/>
		<rect x="144.405" y="115.703" style="fill:#8FBDCF;" width="9.662" height="12.749"/>
		<rect x="157.825" y="115.703" style="fill:#8FBDCF;" width="9.662" height="12.749"/>
		<rect x="130.985" y="135.295" style="fill:#8FBDCF;" width="9.662" height="12.749"/>
		<rect x="144.405" y="135.295" style="fill:#8FBDCF;" width="9.662" height="12.749"/>
		<rect x="157.825" y="135.295" style="fill:#8FBDCF;" width="9.662" height="12.749"/>
	</g>
	<path style="fill:#58595B;" d="M85.071,69.224c-0.73,0-1.322,0.373-1.322,0.833v86.333c0,0.46,0.592,0.833,1.322,0.833
		c0.731,0,1.323-0.373,1.323-0.833V70.057C86.395,69.597,85.803,69.224,85.071,69.224z"/>
	<path style="fill:#ED2224;" d="M83.749,70.64c-2.854,0-4.058,2.25-5.831,2.833s-4.774,0.917-6.94,0.833v10
		c3.167-0.083,5.584-0.25,7.584-1.667s3.209-1.75,5.188-1.75V70.64z"/>
</g>
<g id="Layer_1">
</g>
</svg>
